name Walk1.mot
datacolumns 19
datarows 30
range 1.74000000 1.88500000
endheader

                time	   L_ground_force_vx	   L_ground_force_vy	   L_ground_force_vz	   L_ground_force_px	   L_ground_force_py	   L_ground_force_pz	   R_ground_force_vx	   R_ground_force_vy	   R_ground_force_vz	   R_ground_force_px	   R_ground_force_py	   R_ground_force_pz	   L_ground_torque_x	   L_ground_torque_y	   L_ground_torque_z	   R_ground_torque_x	   R_ground_torque_y	   R_ground_torque_z	
          1.74000000	         14.73304279	        570.06042277	         36.54783788	         -0.40905252	          0.00000000	         -0.06567464	         -0.02240088	          0.23157533	          0.01103804	          0.00005332	          0.00000000	          0.00007799	          0.00000000	         -0.41091703	          0.00000000	          0.00000000	          0.00008380	          0.00000000	
          1.74500000	         16.64119060	        577.70983018	         37.42499822	         -0.40792036	          0.00000000	         -0.06597814	         -0.03207292	          0.29282255	          0.01184521	          0.00006515	          0.00000000	          0.00009308	          0.00000000	         -0.40928553	          0.00000000	          0.00000000	          0.00017341	          0.00000000	
          1.75000000	         18.63910460	        585.67524973	         38.34107783	         -0.40683466	          0.00000000	         -0.06625778	         -0.04319981	          0.35221697	          0.01164303	          0.00007555	          0.00000000	          0.00010513	          0.00000000	         -0.41299692	          0.00000000	          0.00000000	          0.00029175	          0.00000000	
          1.75500000	         20.72442914	        593.92583498	         39.27771653	         -0.40579216	          0.00000000	         -0.06651653	         -0.05522311	          0.40139718	          0.00989185	          0.00008245	          0.00000000	          0.00011095	          0.00000000	         -0.42317850	          0.00000000	          0.00000000	          0.00044030	          0.00000000	
          1.76000000	         22.89598134	        602.41200925	         40.21284772	         -0.40479123	          0.00000000	         -0.06675737	         -0.06716144	          0.42858427	          0.00594116	          0.00008305	          0.00000000	          0.00010635	          0.00000000	         -0.44100053	          0.00000000	          0.00000000	          0.00061766	          0.00000000	
          1.76500000	         25.15423362	        611.06991860	         41.12461842	         -0.40383088	          0.00000000	         -0.06698193	         -0.07749493	          0.41812278	         -0.00095218	          0.00007375	          0.00000000	          0.00008605	          0.00000000	         -0.46737050	          0.00000000	          0.00000000	          0.00081805	          0.00000000	
          1.77000000	         27.50091781	        619.82646836	         41.99532158	         -0.40290990	          0.00000000	         -0.06719074	         -0.08405148	          0.35024307	         -0.01158409	          0.00005014	          0.00000000	          0.00004379	          0.00000000	         -0.50270188	          0.00000000	          0.00000000	          0.00102964	          0.00000000	
          1.77500000	         29.93755845	        628.60192835	         42.81300428	         -0.40202797	          0.00000000	         -0.06738438	         -0.08390971	          0.20119802	         -0.02673463	          0.00000714	          0.00000000	         -0.00002751	          0.00000000	         -0.54664298	          0.00000000	          0.00000000	          0.00123262	          0.00000000	
          1.78000000	         32.46454397	        637.31146795	         43.57201477	         -0.40118538	          0.00000000	         -0.06756327	         -0.07334023	         -0.05603317	         -0.04706295	         -0.00006079	          0.00000000	         -0.00013530	          0.00000000	         -0.59812824	          0.00000000	          0.00000000	          0.00139711	          0.00000000	
          1.78500000	         35.08274013	        645.86465207	         44.27315109	         -0.40038162	          0.00000000	         -0.06772682	         -0.04781347	         -0.45024381	         -0.07295832	         -0.00015923	          0.00000000	         -0.00028669	          0.00000000	         -0.65566839	          0.00000000	          0.00000000	          0.00148132	          0.00000000	
          1.79000000	         37.79353722	        654.16497189	         44.92231968	         -0.39961510	          0.00000000	         -0.06787336	         -0.00211082	         -1.00944017	         -0.10434124	         -0.00029309	          0.00000000	         -0.00048743	          0.00000000	         -0.71756208	          0.00000000	          0.00000000	          0.00142994	          0.00000000	
          1.79500000	         40.59687141	        662.10990128	         45.52758432	         -0.39888238	          0.00000000	         -0.06800131	          0.06941728	         -1.75694732	         -0.14041092	         -0.00046568	          0.00000000	         -0.00074033	          0.00000000	         -0.78180690	          0.00000000	          0.00000000	          0.00117347	          0.00000000	
          1.80000000	         43.49041189	        669.59135715	         46.09725636	         -0.39817854	          0.00000000	         -0.06811114	          0.17239566	         -2.70591386	         -0.17934063	         -0.00067738	          0.00000000	         -0.00104340	          0.00000000	         -0.84596924	          0.00000000	          0.00000000	          0.00062882	          0.00000000	
          1.80500000	         46.47037176	        676.49983695	         46.63924475	         -0.39749773	          0.00000000	         -0.06820485	          0.31171683	         -3.85199786	         -0.21792911	         -0.00092397	          0.00000000	         -0.00138732	          0.00000000	         -0.90733084	          0.00000000	          0.00000000	         -0.00029805	          0.00000000	
          1.81000000	         49.53260269	        682.72701287	         47.16028411	         -0.39683409	          0.00000000	         -0.06828461	          0.49052799	         -5.16411850	         -0.25122641	         -0.00119454	          0.00000000	         -0.00175252	          0.00000000	         -0.96321245	          0.00000000	          0.00000000	         -0.00170664	          0.00000000	
          1.81500000	         52.67371069	        688.16604780	         47.66470385	         -0.39618236	          0.00000000	         -0.06835261	          0.70886661	         -6.57333198	         -0.27216628	         -0.00146915	          0.00000000	         -0.00210588	          0.00000000	         -1.01115238	          0.00000000	          0.00000000	         -0.00369269	          0.00000000	
          1.82000000	         55.89264601	        692.71349332	         48.15411974	         -0.39553766	          0.00000000	         -0.06841011	          0.96191626	         -7.96015448	         -0.27125374	         -0.00171617	          0.00000000	         -0.00239718	          0.00000000	         -1.04888856	          0.00000000	          0.00000000	         -0.00633428	          0.00000000	
          1.82500000	         59.19064878	        696.26973747	         48.62710950	         -0.39489565	          0.00000000	         -0.06845792	          1.23788548	         -9.14102677	         -0.23637754	         -0.00188973	          0.00000000	         -0.00255580	          0.00000000	         -1.07472040	          0.00000000	          0.00000000	         -0.00967232	          0.00000000	
          1.83000000	         62.56960915	        698.74101435	         49.07779631	         -0.39425168	          0.00000000	         -0.06849667	          1.51556023	         -9.85510978	         -0.15284031	         -0.00192730	          0.00000000	         -0.00248794	          0.00000000	         -1.08765768	          0.00000000	          0.00000000	         -0.01368473	          0.00000000	
          1.83500000	         66.02951828	        700.03935340	         49.49460818	         -0.39360031	          0.00000000	         -0.06852640	          1.76164948	         -9.75322458	         -0.00372456	         -0.00174821	          0.00000000	         -0.00207528	          0.00000000	         -1.08738089	          0.00000000	          0.00000000	         -0.01825390	          0.00000000	
          1.84000000	         69.56664186	        700.07815441	         49.85941626	         -0.39293685	          0.00000000	         -0.06854598	          1.92813520	         -8.39150039	          0.22926287	         -0.00125334	          0.00000000	         -0.00117586	          0.00000000	         -1.07425873	          0.00000000	          0.00000000	         -0.02312774	          0.00000000	
          1.84500000	         73.17271173	        698.77085322	         50.14711182	         -0.39225762	          0.00000000	         -0.06855350	          1.94995645	         -5.23314769	          0.56430419	         -0.00032707	          0.00000000	          0.00037170	          0.00000000	         -1.04928582	          0.00000000	          0.00000000	         -0.02787560	          0.00000000	
          1.85000000	         76.83430017	        696.03017753	         50.32598038	         -0.39156036	          0.00000000	         -0.06854640	          1.74349969	          0.33731749	          1.01716627	          0.00115768	          0.00000000	          0.00273909	          0.00000000	         -1.01417229	          0.00000000	          0.00000000	         -0.03184149	          0.00000000	
          1.85500000	         80.53119700	        691.76328836	         50.35844375	         -0.39084425	          0.00000000	         -0.06852136	          1.20653272	          8.98218715	          1.59790504	          0.00333018	          0.00000000	          0.00609295	          0.00000000	         -0.97128839	          0.00000000	          0.00000000	         -0.03409886	          0.00000000	
          1.86000000	         84.23490804	        685.86863603	         50.20236637	         -0.39011019	          0.00000000	         -0.06847340	          0.22039796	         21.35506559	          2.30643074	          0.00630724	          0.00000000	          0.01057146	          0.00000000	         -0.92348924	          0.00000000	          0.00000000	         -0.03341361	          0.00000000	
          1.86500000	         87.90749035	        678.23312945	         49.81451515	         -0.38936078	          0.00000000	         -0.06839669	         -1.34454182	         38.01540195	          3.12684366	          0.01017174	          0.00000000	          0.01625139	          0.00000000	         -0.87351627	          0.00000000	          0.00000000	         -0.02822420	          0.00000000	
          1.87000000	         91.49933207	        668.72905772	         49.15388740	         -0.38860030	          0.00000000	         -0.06828651	         -3.61905741	         59.30682590	          4.02055131	          0.01494350	          0.00000000	          0.02310431	          0.00000000	         -0.82335786	          0.00000000	          0.00000000	         -0.01665112	          0.00000000	
          1.87500000	         94.94680387	        657.21861887	         48.18466585	         -0.38783527	          0.00000000	         -0.06813887	         -6.71955947	         85.19404342	          4.91833400	          0.02054154	          0.00000000	          0.03094120	          0.00000000	         -0.77431167	          0.00000000	          0.00000000	          0.00344927	          0.00000000	
          1.88000000	         98.17112008	        643.56209066	         46.87857427	         -0.38707509	          0.00000000	         -0.06795003	        -10.72572810	        115.05541418	          5.71173785	          0.02673816	          0.00000000	          0.03934661	          0.00000000	         -0.72709368	          0.00000000	          0.00000000	          0.03436825	          0.00000000	
          1.88500000	        101.07860924	        627.62662266	         45.21651993	         -0.38633188	          0.00000000	         -0.06771748	        -15.65391551	        147.48230454	          6.24265836	          0.03317005	          0.00000000	          0.04769095	          0.00000000	         -0.68153868	          0.00000000	          0.00000000	          0.07834635	          0.00000000	
